<svg xmlns="http://www.w3.org/2000/svg" viewBox="0 0 2664.27 812.22"><title>SeeBiz - New logo</title><path d="M2360,1833.38a199.25,199.25,0,0,0-44.26-70q-29.39-30.18-72.83-48.29t-99.78-18.1q-57.15,0-100.19,18.1t-72.42,48.69a200.94,200.94,0,0,0-44.26,71.62,252.52,252.52,0,0,0-14.89,86.91,218.62,218.62,0,0,0,15.29,81.27,202.29,202.29,0,0,0,44.66,68.4q29.37,29.79,72.83,47.08t99,17.3q78,0,131.57-32.19t79.26-82.88l-129.56-37q-7.23,20.13-29.37,31.38a102.26,102.26,0,0,1-47.07,11.27,87.13,87.13,0,0,1-49.09-14.89q-22.54-14.88-24.95-48.68h296.94q1.6-9.66,2.82-22.13t1.21-24.55A236,236,0,0,0,2360,1833.38Zm-289.3,38.22q4-30.57,22.54-48.28t47.47-17.71q29,0,47.48,17.71t22.53,48.28Z" transform="translate(-1417.87 -1343.89)" style="fill:#306ab4"/><path d="M3524.77,1675.62V1546.86h152.89v128.76Zm0,458.68V1711h152.89V2134.3Z" transform="translate(-1417.87 -1343.89)" style="fill:#3bb54a"/><path d="M3722.43,2044.18l193.13-228.54H3734.5V1711h340.39v90.13l-192.32,228.54h199.56V2134.3h-359.7Z" transform="translate(-1417.87 -1343.89)" style="fill:#3bb54a"/><path d="M3478,1987.85q0,38.63-16.09,66.38a130.49,130.49,0,0,1-44.26,45.47q-28.17,17.72-65.58,26.15a358.78,358.78,0,0,1-79.27,8.45H2992V1563H3323.5q29.76,0,53.92,12.87a134.81,134.81,0,0,1,41,33.4,153.22,153.22,0,0,1,26.15,46.67,159.59,159.59,0,0,1,9.25,53.51q0,40.26-20.52,76.86t-61.56,55.12q49.08,14.47,77.66,50.29T3478,1987.85Zm-329.12-291.31v87.71h107a51.8,51.8,0,0,0,29.38-8.85q13.28-8.85,13.27-35.41,0-23.33-11.26-33.39a38.64,38.64,0,0,0-26.56-10.06Zm169.79,259.12q0-20.92-11.26-35t-29-14.08H3148.88v95.76H3272.8q19.32,0,32.59-12.07T3318.67,1955.66Z" transform="translate(-1417.87 -1343.89)" style="fill:#3bb54a"/><path d="M1802.25,1744.79a439.07,439.07,0,0,0-49.86-25.73,454,454,0,0,0-48.65-18.1,175.61,175.61,0,0,0-52.67-8.44q-20.92,0-33.37,6.43t-12.47,21.71q0,11.28,7.24,18.5t20.91,13.27a261.58,261.58,0,0,0,33.37,11.66q19.7,5.64,44.63,13.67a586,586,0,0,1,71.17,26.54q31.76,14.48,54.28,34.17a131.81,131.81,0,0,1,34.58,47.85q12.06,28.15,12.06,68.35,0,51.48-18.9,86.45T1814.72,2097q-31,20.91-70,30.16a339.63,339.63,0,0,1-78.4,9.24,444.84,444.84,0,0,1-64.33-4.82,557.86,557.86,0,0,1-65.54-13.67,575.09,575.09,0,0,1-62.73-20.91,400.11,400.11,0,0,1-55.88-27.34l67.54-137.51a472.82,472.82,0,0,0,58.71,31.36,415.89,415.89,0,0,0,58.3,21.71,232.41,232.41,0,0,0,66.34,9.65q25.73,0,35.79-6.83t10-18.1q0-12.06-10-20.5t-27.75-14.88q-17.68-6.43-40.61-12.87t-48.65-15.28q-37.8-12.86-65.13-27.74t-45-33.77a120.47,120.47,0,0,1-26.13-43q-8.45-24.12-8.45-55.48,0-47.45,17.29-83.64t47.05-60.31a210.49,210.49,0,0,1,67.95-36.59,259,259,0,0,1,80.82-12.46,307,307,0,0,1,61.11,6,490,490,0,0,1,57.5,15.28,555.9,555.9,0,0,1,51.87,20.1q24.12,10.86,43.42,20.51Z" transform="translate(-1417.87 -1343.89)" style="fill:#306ab4"/><path d="M2847.5,1617.66l-61.91-19a1050.93,1050.93,0,0,1-75.09,107.59,1125.79,1125.79,0,0,1-90.06,100.36,62.54,62.54,0,0,0-34,16.66q-13.62,13-19.39,33a1227.65,1227.65,0,0,1-156.84,116.28q-19,11.91-38.65,23.25c-272.82,157.51-573.48,196.28-816.26,127.89,210.7,20.76,447.9-29.13,667.13-155.7a1234,1234,0,0,0,202.09-145.36,1150.22,1150.22,0,0,0,103.3-103.92,1060.7,1060.7,0,0,0,117.65-163l-73.36-22.47L2799,1343.89Z" transform="translate(-1417.87 -1343.89)" style="fill:#33a348"/><path d="M2798.3,1344.48c-23.63,215-214.38,465.63-507,634.59-247.77,143-509.74,193.55-704.41,152.88q-15.94-3.79-31.59-8.21c210.7,20.76,447.9-29.13,667.13-155.7,185.63-107.18,330.08-253,423-412.26l-73.35-22.46Z" transform="translate(-1417.87 -1343.89)" style="fill:#3bb54a"/><path d="M2373.7,1941.21q1.2-12.46,1.2-24.55a236,236,0,0,0-14.88-83.28,199.67,199.67,0,0,0-44.26-70q-29.39-30.16-72.83-48.28t-99.78-18.1v108.68q27.32.72,45.06,17.66,18.49,17.7,22.53,48.28h-146v91.74h306.11Q2372.48,1953.68,2373.7,1941.21Z" transform="translate(-1417.87 -1343.89)" style="fill:#306ab4"/><path d="M2853.18,1833.38a199.25,199.25,0,0,0-44.26-70q-29.39-30.18-72.83-48.29a214.55,214.55,0,0,0-25.59-8.78q-33.78-9.33-74.19-9.32-57.15,0-100.19,18.1-4.23,1.79-8.32,3.68-37.62,17.43-64.1,45a199.34,199.34,0,0,0-39.2,58.91q-2.7,6.22-5.06,12.71a252.76,252.76,0,0,0-14.89,86.91,222.63,222.63,0,0,0,5.64,50.3,213.8,213.8,0,0,0,9.65,31,202.44,202.44,0,0,0,44.66,68.4q29.37,29.79,72.83,47.08t99,17.3q78,0,131.57-32.19t79.26-82.88l-129.55-37q-7.24,20.13-29.38,31.38a102.26,102.26,0,0,1-47.07,11.27,87.13,87.13,0,0,1-49.09-14.89q-22.55-14.88-25-48.68H2864q1.61-9.66,2.82-22.13t1.21-24.55A236,236,0,0,0,2853.18,1833.38Zm-289.3,38.22a103.17,103.17,0,0,1,3.15-15.28q5.78-20,19.39-33a62.54,62.54,0,0,1,34-16.66,83.36,83.36,0,0,1,13.46-1.05q29,0,47.47,17.71t22.54,48.28Z" transform="translate(-1417.87 -1343.89)" style="fill:#306ab4"/></svg>